<svg xmlns="http://www.w3.org/2000/svg" viewBox="0 0 34 56" width="34" height="56">
	<style>
		tspan { white-space:pre }
		.shp0 { opacity: 0.502;fill: #ffffff } 
	</style>
	<g id="Home">
		<g id="Slider">
			<path id="arrow right" class="shp0" d="M33.2 27.86C33.2 27.41 32.98 26.91 32.64 26.57L6.64 0.57C6.31 0.24 5.8 0.01 5.36 0.01C4.91 0.01 4.41 0.24 4.07 0.57L1.28 3.36C0.95 3.7 0.73 4.2 0.73 4.64C0.73 5.09 0.95 5.59 1.28 5.93L23.21 27.86L1.28 49.79C0.95 50.12 0.73 50.63 0.73 51.07C0.73 51.57 0.95 52.02 1.28 52.35L4.07 55.14C4.41 55.48 4.91 55.7 5.36 55.7C5.8 55.7 6.31 55.48 6.64 55.14L32.64 29.14C32.98 28.81 33.2 28.3 33.2 27.86Z" />
		</g>
	</g>
</svg>