<svg xmlns="http://www.w3.org/2000/svg" viewBox="0 0 34 56" width="34" height="56">
	<style>
		tspan { white-space:pre }
		.shp0 { opacity: 0.502;fill: #ffffff } 
	</style>
	<g id="Home">
		<g id="Slider">
			<path id="arrow left" class="shp0" d="M0.8 27.86C0.8 27.41 1.02 26.91 1.36 26.57L27.36 0.57C27.69 0.24 28.2 0.01 28.64 0.01C29.09 0.01 29.59 0.24 29.93 0.57L32.72 3.36C33.05 3.7 33.27 4.2 33.27 4.64C33.27 5.09 33.05 5.59 32.72 5.93L10.79 27.86L32.72 49.79C33.05 50.12 33.27 50.63 33.27 51.07C33.27 51.57 33.05 52.02 32.72 52.35L29.93 55.14C29.59 55.48 29.09 55.7 28.64 55.7C28.2 55.7 27.69 55.48 27.36 55.14L1.36 29.14C1.02 28.81 0.8 28.3 0.8 27.86Z" />
		</g>
	</g>
</svg>