<svg xmlns="http://www.w3.org/2000/svg" viewBox="0 0 15 16" width="15" height="16">
	<style>
		tspan { white-space:pre }
		.shp0 { fill: #ffffff } 
	</style>
	<g id="About">
		<g id="meet the team">
			<g id="meber 1">
				<g id="social">
					<path id="g+" class="shp0" d="M7.82 12.37C7.82 13.93 6.34 14.46 5.01 14.46C3.58 14.46 1.65 13.8 1.65 12.09C1.65 10.23 3.83 9.77 5.29 9.77C5.45 9.77 5.59 9.77 5.74 9.79C6.65 10.42 7.82 11.12 7.82 12.37ZM6.75 4.67C6.75 5.76 6.33 6.64 5.11 6.64C3.52 6.64 2.62 4.52 2.62 3.16C2.62 2.11 3.2 1.07 4.36 1.07C6.02 1.07 6.75 3.31 6.75 4.67ZM5.58 0.43C5.02 0.43 4.45 0.49 3.91 0.61C2.29 0.97 0.97 2.41 0.97 4.11C0.97 5.9 2.47 7.18 4.2 7.18C4.41 7.18 4.61 7.16 4.83 7.14C4.74 7.41 4.63 7.61 4.63 7.9C4.63 8.4 4.91 8.85 5.2 9.23C3.61 9.28 1.12 9.69 0.33 11.29C0.14 11.67 0 12.08 0 12.5C0 14.57 2.41 15.28 4.08 15.28C5.4 15.28 6.8 15 7.83 14.12C8.59 13.45 9.08 12.62 9.08 11.6C9.08 9.1 6.4 8.64 6.4 7.49C6.4 6.31 8.4 6.14 8.4 3.77C8.4 2.77 7.95 1.69 7.07 1.14L8.27 1.14L9.48 0.43L5.58 0.43ZM14.85 2.72L12.57 2.72L12.57 0.43L11.43 0.43L11.43 2.72L9.14 2.72L9.14 3.86L11.43 3.86L11.43 6.14L12.57 6.14L12.57 3.86L14.85 3.86L14.85 2.72Z" />
				</g>
			</g>
		</g>
	</g>
</svg>