<svg xmlns="http://www.w3.org/2000/svg" viewBox="0 0 76 70" width="76" height="70">
	<style>
		tspan { white-space:pre }
		.shp0 { fill: #c75359 } 
	</style>
	<g id="Services">
		<g id="service list">
			<g id="Service3">
				<path id="giars" class="shp0" d="M35.75 35.06C35.75 40.57 31.25 45.06 25.75 45.06C20.24 45.06 15.75 40.57 15.75 35.06C15.75 29.55 20.24 25.06 25.75 25.06C31.25 25.06 35.75 29.55 35.75 35.06ZM65.75 55.06C65.75 57.8 63.52 60.06 60.75 60.06C58.01 60.06 55.75 57.83 55.75 55.06C55.75 52.33 58.01 50.06 60.75 50.06C63.48 50.06 65.75 52.33 65.75 55.06ZM65.75 15.06C65.75 17.8 63.52 20.06 60.75 20.06C58.01 20.06 55.75 17.83 55.75 15.06C55.75 12.33 58.01 10.06 60.75 10.06C63.48 10.06 65.75 12.33 65.75 15.06ZM50.75 31.51C50.75 30.96 50.36 30.45 49.81 30.34L43.87 29.44C43.52 28.34 43.05 27.29 42.54 26.23C43.64 24.71 44.81 23.3 45.94 21.78C46.1 21.55 46.22 21.31 46.22 21.04C46.22 19.94 41.61 15.73 40.59 14.79C40.36 14.59 40.08 14.48 39.77 14.48C39.5 14.48 39.22 14.55 38.99 14.75L34.38 18.23C33.44 17.76 32.47 17.33 31.45 17.01L30.55 11.04C30.47 10.49 29.93 10.06 29.38 10.06L22.11 10.06C21.57 10.06 21.1 10.45 20.94 11C20.43 12.91 20.24 15.06 20.04 17.01C18.99 17.37 18.01 17.76 17.04 18.26L12.54 14.75C12.31 14.59 12.04 14.48 11.72 14.48C10.59 14.48 6.22 19.2 5.43 20.26C5.24 20.49 5.16 20.76 5.16 21.04C5.16 21.31 5.28 21.58 5.43 21.82C6.68 23.3 7.86 24.75 8.95 26.31C8.44 27.29 8.01 28.26 7.7 29.28L1.65 30.22C1.14 30.3 0.75 30.88 0.75 31.39L0.75 38.62C0.75 39.16 1.14 39.67 1.68 39.75L7.62 40.69C7.97 41.78 8.44 42.84 8.99 43.89C7.86 45.41 6.68 46.86 5.55 48.34C5.4 48.58 5.28 48.81 5.28 49.09C5.28 50.22 9.89 54.4 10.9 55.33C11.14 55.53 11.41 55.65 11.72 55.65C12 55.65 12.31 55.57 12.5 55.37L17.11 51.9C18.05 52.37 19.03 52.8 20.04 53.11L20.94 59.08C21.02 59.63 21.57 60.06 22.11 60.06L29.38 60.06C29.93 60.06 30.4 59.67 30.55 59.12C31.06 57.21 31.25 55.06 31.45 53.07C32.5 52.76 33.48 52.37 34.46 51.86L38.95 55.37C39.18 55.53 39.46 55.65 39.77 55.65C40.9 55.65 45.28 50.88 46.06 49.83C46.25 49.63 46.33 49.36 46.33 49.09C46.33 48.77 46.22 48.54 46.06 48.3C44.81 46.82 43.64 45.37 42.54 43.81C43.05 42.84 43.48 41.86 43.79 40.84L49.85 39.91C50.36 39.83 50.75 39.24 50.75 38.73L50.75 31.51ZM75.75 52.33C75.75 51.74 70.71 51.19 69.93 51.12C69.61 50.41 69.22 49.71 68.75 49.09C69.11 48.3 70.75 44.4 70.75 43.69C70.75 43.62 70.71 43.5 70.59 43.42C70.12 43.15 65.94 40.69 65.75 40.69L65.51 40.76C64.18 42.09 63.01 43.62 61.92 45.14C61.53 45.1 61.14 45.06 60.75 45.06C60.36 45.06 59.97 45.1 59.58 45.14C59.18 44.55 56.25 40.69 55.75 40.69C55.55 40.69 51.37 43.19 50.9 43.42C50.79 43.5 50.75 43.62 50.75 43.69C50.75 44.36 52.39 48.3 52.74 49.09C52.27 49.71 51.88 50.41 51.57 51.12C50.79 51.19 45.75 51.74 45.75 52.33L45.75 57.8C45.75 58.38 50.79 58.93 51.57 59.01C51.88 59.75 52.27 60.41 52.74 61.04C52.39 61.82 50.75 65.76 50.75 66.43C50.75 66.51 50.79 66.62 50.9 66.7C51.37 66.98 55.55 69.48 55.75 69.48C56.25 69.48 59.18 65.57 59.58 64.98C59.97 65.02 60.36 65.06 60.75 65.06C61.14 65.06 61.53 65.02 61.92 64.98C62.31 65.57 65.24 69.48 65.75 69.48C65.94 69.48 70.12 66.98 70.59 66.7C70.71 66.62 70.75 66.55 70.75 66.43C70.75 65.73 69.11 61.82 68.75 61.04C69.22 60.41 69.61 59.75 69.93 59.01C70.71 58.93 75.75 58.38 75.75 57.8L75.75 52.33ZM75.75 12.33C75.75 11.74 70.71 11.19 69.93 11.12C69.61 10.41 69.22 9.71 68.75 9.09C69.11 8.3 70.75 4.4 70.75 3.69C70.75 3.62 70.71 3.5 70.59 3.42C70.12 3.15 65.94 0.69 65.75 0.69L65.51 0.76C64.18 2.09 63.01 3.62 61.92 5.14C61.53 5.1 61.14 5.06 60.75 5.06C60.36 5.06 59.97 5.1 59.58 5.14C59.18 4.55 56.25 0.69 55.75 0.69C55.55 0.69 51.37 3.19 50.9 3.42C50.79 3.5 50.75 3.62 50.75 3.69C50.75 4.36 52.39 8.3 52.74 9.09C52.27 9.71 51.88 10.41 51.57 11.12C50.79 11.19 45.75 11.74 45.75 12.33L45.75 17.8C45.75 18.38 50.79 18.93 51.57 19.01C51.88 19.75 52.27 20.41 52.74 21.04C52.39 21.82 50.75 25.76 50.75 26.43C50.75 26.51 50.79 26.62 50.9 26.7C51.37 26.98 55.55 29.48 55.75 29.48C56.25 29.48 59.18 25.57 59.58 24.98C59.97 25.02 60.36 25.06 60.75 25.06C61.14 25.06 61.53 25.02 61.92 24.98C62.31 25.57 65.24 29.48 65.75 29.48C65.94 29.48 70.12 26.98 70.59 26.7C70.71 26.62 70.75 26.55 70.75 26.43C70.75 25.73 69.11 21.82 68.75 21.04C69.22 20.41 69.61 19.75 69.93 19.01C70.71 18.93 75.75 18.38 75.75 17.8L75.75 12.33Z" />
			</g>
		</g>
	</g>
</svg>