<svg xmlns="http://www.w3.org/2000/svg" viewBox="0 0 46 69" width="46" height="69">
	<style>
		tspan { white-space:pre }
		.shp0 { fill: #df5c64 } 
	</style>
	<g id="Services">
		<g id="service list">
			<g id="Service1">
				<path id="lightball" class="shp0" d="M32.86 20.14C32.86 15.18 27.01 12.99 22.86 12.99C22.1 12.99 21.43 13.66 21.43 14.42C21.43 15.18 22.1 15.85 22.86 15.85C25.23 15.85 30 17.06 30 20.14C30 20.9 30.67 21.57 31.43 21.57C32.19 21.57 32.86 20.9 32.86 20.14ZM40 20.14C40 23 38.84 25.99 36.97 28.17C36.12 29.16 35.14 30.09 34.24 31.12C31.07 34.92 28.4 39.38 27.95 44.43L17.77 44.43C17.32 39.38 14.64 34.92 11.47 31.12C10.58 30.09 9.6 29.16 8.75 28.17C6.88 25.99 5.71 23 5.71 20.14C5.71 11.21 14.78 5.85 22.86 5.85C30.94 5.85 40 11.21 40 20.14ZM45.72 20.14C45.72 7.99 34.16 0.14 22.86 0.14C11.56 0.14 0 7.99 0 20.14C0 24.74 1.52 28.71 4.6 32.1C7.68 35.5 11.74 40.27 12.1 45.05C10.8 45.81 10 47.24 10 48.71C10 49.78 10.4 50.81 11.12 51.57C10.4 52.33 10 53.36 10 54.43C10 55.9 10.76 57.24 12.01 58.04C11.65 58.67 11.43 59.43 11.43 60.14C11.43 63.04 13.71 64.43 16.3 64.43C17.46 67.02 20.05 68.71 22.86 68.71C25.67 68.71 28.26 67.02 29.42 64.43C32.01 64.43 34.29 63.04 34.29 60.14C34.29 59.43 34.07 58.67 33.71 58.04C34.96 57.24 35.72 55.9 35.72 54.43C35.72 53.36 35.32 52.33 34.6 51.57C35.32 50.81 35.72 49.78 35.72 48.71C35.72 47.24 34.91 45.81 33.62 45.05C33.98 40.27 38.04 35.5 41.12 32.1C44.2 28.71 45.72 24.74 45.72 20.14Z" />
			</g>
		</g>
	</g>
</svg>