<svg xmlns="http://www.w3.org/2000/svg" viewBox="0 0 14 14" width="14" height="14">
	<style>
		tspan { white-space:pre }
		.shp0 { fill: #ffffff } 
	</style>
	<g id="About">
		<g id="meet the team">
			<g id="meber 1">
				<g id="social">
					<path id="lin" class="shp0" d="M3.12 4.87L0.17 4.87L0.17 13.71L3.12 13.71L3.12 4.87ZM3.3 2.14C3.29 1.27 2.67 0.61 1.66 0.61C0.66 0.61 0 1.27 0 2.14C0 2.98 0.63 3.66 1.62 3.66L1.64 3.66L1.64 3.66C2.67 3.66 3.31 2.98 3.3 2.14ZM13.71 8.64C13.71 5.93 12.26 4.66 10.33 4.66C8.74 4.66 8.04 5.55 7.66 6.15L7.68 6.15L7.68 4.87L4.74 4.87C4.74 4.87 4.78 5.7 4.74 13.71L4.74 13.71L7.68 13.71L7.68 8.78C7.68 8.51 7.7 8.25 7.77 8.05C7.99 7.53 8.47 6.98 9.28 6.98C10.35 6.98 10.77 7.8 10.77 8.98L10.77 13.71L13.71 13.71L13.71 8.64Z" />
				</g>
			</g>
		</g>
	</g>
</svg>