<svg xmlns="http://www.w3.org/2000/svg" viewBox="0 0 65 65" width="65" height="65">
	<style>
		tspan { white-space:pre }
		.shp0 { fill: #c75359 } 
	</style>
	<g id="Services">
		<g id="service list">
			<g id="Service2">
				<path id="m wand" class="shp0" d="M46.38 23.54L42.2 19.36L53.65 7.91L57.83 12.09L46.38 23.54ZM63.85 12.09C63.85 11.43 63.61 10.8 63.14 10.33L55.41 2.6C54.94 2.13 54.31 1.9 53.65 1.9C52.99 1.9 52.36 2.13 51.89 2.6L1.66 52.83C1.19 53.3 0.95 53.93 0.95 54.59C0.95 55.26 1.19 55.88 1.66 56.35L9.39 64.08C9.86 64.55 10.49 64.79 11.15 64.79C11.81 64.79 12.44 64.55 12.91 64.08L63.14 13.85C63.61 13.38 63.85 12.76 63.85 12.09ZM11.07 4.67L9.9 0.84L8.73 4.67L4.9 5.84L8.73 7.01L9.9 10.84L11.07 7.01L14.9 5.84L11.07 4.67ZM24.74 11L22.4 3.34L20.06 11L12.4 13.34L20.06 15.69L22.4 23.34L24.74 15.69L32.4 13.34L24.74 11ZM61.07 29.67L59.9 25.84L58.73 29.67L54.9 30.84L58.73 32.01L59.9 35.84L61.07 32.01L64.9 30.84L61.07 29.67ZM36.07 4.67L34.9 0.84L33.73 4.67L29.9 5.84L33.73 7.01L34.9 10.84L36.07 7.01L39.9 5.84L36.07 4.67Z" />
			</g>
		</g>
	</g>
</svg>