<svg xmlns="http://www.w3.org/2000/svg" viewBox="0 0 65 64" width="65" height="64">
	<style>
		tspan { white-space:pre }
		.shp0 { fill: #c75359 } 
	</style>
	<g id="Services">
		<g id="service list">
			<g id="Service4">
				<path id="rocket" class="shp0" d="M55.75 12.5C55.75 14.57 54.07 16.25 52 16.25C49.93 16.25 48.25 14.57 48.25 12.5C48.25 10.43 49.93 8.75 52 8.75C54.07 8.75 55.75 10.43 55.75 12.5ZM64.5 1.25C64.5 0.55 63.87 0 63.17 0C49.58 0 42.12 3.12 32.35 12.85C30.12 15.12 27.82 17.7 25.48 20.47L10.67 21.25C10.28 21.29 9.89 21.52 9.66 21.87L0.91 36.87C0.63 37.34 0.71 37.97 1.1 38.4L3.6 40.9C3.84 41.13 4.19 41.25 4.5 41.25C4.62 41.25 4.73 41.25 4.85 41.21L15.63 37.89L26.61 48.87L23.29 59.65C23.17 60.08 23.29 60.55 23.6 60.9L26.1 63.4C26.37 63.63 26.69 63.75 27 63.75C27.23 63.75 27.43 63.71 27.62 63.59L42.62 54.84C42.98 54.61 43.21 54.22 43.25 53.83L44.03 39.02C46.8 36.68 49.38 34.37 51.65 32.15C60.91 22.85 64.5 14.22 64.5 1.25Z" />
			</g>
		</g>
	</g>
</svg>