<svg xmlns="http://www.w3.org/2000/svg" viewBox="0 0 15 12" width="15" height="12">
	<style>
		tspan { white-space:pre }
		.shp0 { fill: #ffffff } 
	</style>
	<g id="About">
		<g id="meet the team">
			<g id="meber 1">
				<g id="social">
					<path id="twit" class="shp0" d="M14.46 1.93C13.94 2.15 13.38 2.31 12.8 2.38C13.4 2.02 13.85 1.46 14.07 0.79C13.51 1.12 12.89 1.36 12.24 1.48C11.71 0.92 10.96 0.57 10.13 0.57C8.53 0.57 7.25 1.87 7.25 3.46C7.25 3.68 7.28 3.9 7.32 4.12C4.93 3.99 2.79 2.85 1.37 1.1C1.12 1.53 0.98 2.02 0.98 2.56C0.98 3.56 1.49 4.44 2.27 4.96C1.79 4.94 1.35 4.81 0.96 4.59C0.96 4.6 0.96 4.62 0.96 4.63C0.96 6.03 1.95 7.19 3.28 7.46C3.03 7.52 2.78 7.55 2.52 7.55C2.33 7.55 2.15 7.54 1.97 7.51C2.34 8.65 3.4 9.48 4.67 9.51C3.68 10.29 2.44 10.74 1.09 10.74C0.85 10.74 0.62 10.73 0.39 10.71C1.67 11.53 3.19 12 4.82 12C10.12 12 13.02 7.61 13.02 3.8C13.02 3.67 13.02 3.55 13.01 3.42C13.58 3.01 14.07 2.5 14.46 1.93Z" />
				</g>
			</g>
		</g>
	</g>
</svg>