<svg xmlns="http://www.w3.org/2000/svg" viewBox="0 0 157 160" width="157" height="160">
	<style>
		tspan { white-space:pre }
		.shp0 { fill: #5b4b59 } 
	</style>
	<g id="About">
		<g id="meet the team">
			<g id="meber 1">
				<path id="User" class="shp0" d="M71.89 2.41C66.43 2.41 67.27 4.86 64.33 5.28C61.39 5.7 64.92 4.1 56.11 5.78C47.29 7.46 44.18 18.83 43.76 23.04C43.34 27.25 43.23 39.09 43.51 45.41C44.35 49.19 41.41 49.19 41.41 49.19C36.13 48.85 38.51 65.36 38.51 65.36C39.26 69.43 38.23 71.46 46.05 74.61C49.78 85.26 59.51 90.89 59.51 90.89C59.51 90.89 59.56 97.46 59.71 102.32C58.91 101.92 62.43 114.74 38.13 118.34C13.83 121.94 9.18 129.83 4.6 134.22C0.02 138.62 0.19 159.92 0.19 159.92L157.02 160.01C157.02 160.01 155.85 138.62 151.27 134.22C146.69 129.83 141.7 121.94 117.4 118.34C93.78 114.91 97.66 102.27 97.49 101.51C97.54 99.6 97.79 91.47 97.79 91.47C97.79 91.47 106.04 84.94 109.77 74.29C115.63 70.58 117.86 70.06 118.83 65.79C118.83 65.79 120.56 49.11 115.02 49.19C115.02 49.19 112.4 50.04 113.24 46.25C114.08 42.46 113.8 30.62 113.38 26.41C112.96 22.2 113.59 10.17 104.77 8.48C98.76 7.36 97.97 8.47 95.03 8.05C92.09 7.63 88.59 -0.01 83.14 -0.01L71.89 2.41Z" />
			</g>
		</g>
	</g>
</svg>